# Blender 3.6.0
# www.blender.org
mtllib busher.mtl
o Cube
v -1.000000 -1.000000 1.000000
v -1.000000 1.000000 1.000000
v -1.000000 -1.000000 -1.000000
v -1.000000 1.000000 -1.000000
v 1.000000 -1.000000 1.000000
v 1.000000 1.000000 1.000000
v 1.000000 -1.000000 -1.000000
v 1.000000 1.000000 -1.000000
v -1.050603 -0.920085 0.920085
v -1.050603 0.920085 0.920085
v -1.050603 0.920085 -0.920085
v -1.050603 -0.920085 -0.920085
v -0.920085 -0.920085 -1.050603
v -0.920085 0.920085 -1.050603
v 0.920085 0.920085 -1.050603
v 0.920085 -0.920085 -1.050603
v 1.050603 -0.920085 -0.920085
v 1.050603 0.920085 -0.920085
v 1.050603 0.920085 0.920085
v 1.050603 -0.920085 0.920085
v 0.920085 -0.920085 1.050603
v 0.920085 0.920085 1.050603
v -0.920085 0.920085 1.050603
v -0.920085 -0.920085 1.050603
v -0.920085 -1.050603 -0.920085
v 0.920085 -1.050603 -0.920085
v 0.920085 -1.050603 0.920085
v -0.920085 -1.050603 0.920085
v 0.920085 1.050603 -0.920085
v -0.920085 1.050603 -0.920085
v -0.920085 1.050603 0.920085
v 0.920085 1.050603 0.920085
v -1.097731 -0.708219 0.708219
v -1.097731 0.708219 0.708219
v -1.097731 0.708219 -0.708219
v -1.097731 -0.708219 -0.708219
v -0.708219 -0.708219 -1.097731
v -0.708219 0.708219 -1.097731
v 0.708219 0.708219 -1.097731
v 0.708219 -0.708219 -1.097731
v 1.097731 -0.708219 -0.708219
v 1.097731 0.708219 -0.708219
v 1.097731 0.708219 0.708219
v 1.097731 -0.708219 0.708219
v 0.708219 -0.708219 1.097731
v 0.708219 0.708219 1.097731
v -0.708219 0.708219 1.097731
v -0.708219 -0.708219 1.097731
v -0.708219 -1.097731 -0.708219
v 0.708219 -1.097731 -0.708219
v 0.708219 -1.097731 0.708219
v -0.708219 -1.097731 0.708219
v 0.708219 1.097731 -0.708219
v -0.708219 1.097731 -0.708219
v -0.708219 1.097731 0.708219
v 0.708219 1.097731 0.708219
vn -0.9932 0.0822 0.0822
vn -0.9932 -0.0822 -0.0822
vn -0.9932 -0.0822 0.0822
vn -0.0822 0.0822 -0.9932
vn 0.0822 -0.0822 -0.9932
vn -0.0822 -0.0822 -0.9932
vn 0.9932 0.0822 -0.0822
vn 0.9932 -0.0822 0.0822
vn 0.9932 -0.0822 -0.0822
vn 0.0822 0.0822 0.9932
vn -0.0822 -0.0822 0.9932
vn 0.0822 -0.0822 0.9932
vn 0.0822 -0.9932 -0.0822
vn -0.0822 -0.9932 0.0822
vn -0.0822 -0.9932 -0.0822
vn -0.0822 0.9932 -0.0822
vn 0.0822 0.9932 0.0822
vn 0.0822 0.9932 -0.0822
vn -0.5774 0.5774 0.5774
vn -0.9397 -0.2418 0.2418
vn -0.5774 -0.5774 0.5774
vn -0.5774 0.5774 -0.5774
vn -0.9397 0.2418 0.2418
vn -0.5774 -0.5774 -0.5774
vn -0.9397 0.2418 -0.2418
vn -0.9397 -0.2418 -0.2418
vn -0.2418 -0.2418 -0.9397
vn 0.5774 0.5774 -0.5774
vn -0.2418 0.2418 -0.9397
vn 0.5774 -0.5774 -0.5774
vn 0.2418 0.2418 -0.9397
vn 0.2418 -0.2418 -0.9397
vn 0.9397 -0.2418 -0.2418
vn 0.5774 0.5774 0.5774
vn 0.9397 0.2418 -0.2418
vn 0.5774 -0.5774 0.5774
vn 0.9397 0.2418 0.2418
vn 0.9397 -0.2418 0.2418
vn 0.2418 -0.2418 0.9397
vn 0.2418 0.2418 0.9397
vn -0.2418 0.2418 0.9397
vn -0.2418 -0.2418 0.9397
vn -0.2418 -0.9397 -0.2418
vn 0.2418 -0.9397 -0.2418
vn 0.2418 -0.9397 0.2418
vn -0.2418 -0.9397 0.2418
vn 0.2418 0.9397 -0.2418
vn -0.2418 0.9397 -0.2418
vn -0.2418 0.9397 0.2418
vn 0.2418 0.9397 0.2418
vn -0.9932 0.0822 -0.0822
vn 0.0822 0.0822 -0.9932
vn 0.9932 0.0822 0.0822
vn -0.0822 0.0822 0.9932
vn 0.0822 -0.9932 0.0822
vn -0.0822 0.9932 0.0822
vt 0.580646 0.044354
vt 0.419354 0.205646
vt 0.419354 0.044354
vt 0.580646 0.294354
vt 0.419354 0.455646
vt 0.419354 0.294354
vt 0.580646 0.544354
vt 0.419354 0.705646
vt 0.419354 0.544354
vt 0.580646 0.794354
vt 0.419354 0.955646
vt 0.419354 0.794354
vt 0.330646 0.544354
vt 0.169354 0.705646
vt 0.169354 0.544354
vt 0.830646 0.544354
vt 0.669354 0.705646
vt 0.669354 0.544354
vt 0.625000 0.000000
vt 0.390529 0.015529
vt 0.375000 0.000000
vt 0.625000 0.250000
vt 0.609471 0.015529
vt 0.375000 0.250000
vt 0.609471 0.234471
vt 0.390529 0.234471
vt 0.390529 0.265529
vt 0.625000 0.500000
vt 0.609471 0.265529
vt 0.375000 0.500000
vt 0.609471 0.484471
vt 0.390529 0.484471
vt 0.390529 0.515529
vt 0.625000 0.750000
vt 0.609471 0.515529
vt 0.375000 0.750000
vt 0.609471 0.734471
vt 0.390529 0.734471
vt 0.390529 0.765529
vt 0.625000 1.000000
vt 0.609471 0.765529
vt 0.375000 1.000000
vt 0.609471 0.984471
vt 0.390529 0.984471
vt 0.140529 0.515529
vt 0.125000 0.500000
vt 0.359471 0.515529
vt 0.125000 0.750000
vt 0.359471 0.734471
vt 0.140529 0.734471
vt 0.875000 0.500000
vt 0.640529 0.515529
vt 0.875000 0.750000
vt 0.859471 0.515529
vt 0.859471 0.734471
vt 0.640529 0.734471
vt 0.580646 0.205646
vt 0.580646 0.455646
vt 0.580646 0.705646
vt 0.580646 0.955646
vt 0.330646 0.705646
vt 0.830646 0.705646
s 1
f 34/1/1 36/2/2 33/3/3
f 38/4/4 40/5/5 37/6/6
f 42/7/7 44/8/8 41/9/9
f 46/10/10 48/11/11 45/12/12
f 50/13/13 52/14/14 49/15/15
f 54/16/16 56/17/17 53/18/18
f 2/19/19 9/20/20 1/21/21
f 4/22/22 10/23/23 2/19/19
f 3/24/24 11/25/25 4/22/22
f 1/21/21 12/26/26 3/24/24
f 4/22/22 13/27/27 3/24/24
f 8/28/28 14/29/29 4/22/22
f 7/30/30 15/31/31 8/28/28
f 3/24/24 16/32/32 7/30/30
f 8/28/28 17/33/33 7/30/30
f 6/34/34 18/35/35 8/28/28
f 5/36/36 19/37/37 6/34/34
f 7/30/30 20/38/38 5/36/36
f 6/34/34 21/39/39 5/36/36
f 2/40/19 22/41/40 6/34/34
f 1/42/21 23/43/41 2/40/19
f 5/36/36 24/44/42 1/42/21
f 7/30/30 25/45/43 3/46/24
f 5/36/36 26/47/44 7/30/30
f 1/48/21 27/49/45 5/36/36
f 3/46/24 28/50/46 1/48/21
f 4/51/22 29/52/47 8/28/28
f 2/53/19 30/54/48 4/51/22
f 6/34/34 31/55/49 2/53/19
f 8/28/28 32/56/50 6/34/34
f 10/23/23 33/3/3 9/20/20
f 11/25/25 34/1/1 10/23/23
f 12/26/26 35/57/51 11/25/25
f 9/20/20 36/2/2 12/26/26
f 14/29/29 37/6/6 13/27/27
f 15/31/31 38/4/4 14/29/29
f 16/32/32 39/58/52 15/31/31
f 13/27/27 40/5/5 16/32/32
f 18/35/35 41/9/9 17/33/33
f 19/37/37 42/7/7 18/35/35
f 20/38/38 43/59/53 19/37/37
f 17/33/33 44/8/8 20/38/38
f 22/41/40 45/12/12 21/39/39
f 23/43/41 46/10/10 22/41/40
f 24/44/42 47/60/54 23/43/41
f 21/39/39 48/11/11 24/44/42
f 26/47/44 49/15/15 25/45/43
f 27/49/45 50/13/13 26/47/44
f 28/50/46 51/61/55 27/49/45
f 25/45/43 52/14/14 28/50/46
f 30/54/48 53/18/18 29/52/47
f 31/55/49 54/16/16 30/54/48
f 32/56/50 55/62/56 31/55/49
f 29/52/47 56/17/17 32/56/50
f 34/1/1 35/57/51 36/2/2
f 38/4/4 39/58/52 40/5/5
f 42/7/7 43/59/53 44/8/8
f 46/10/10 47/60/54 48/11/11
f 50/13/13 51/61/55 52/14/14
f 54/16/16 55/62/56 56/17/17
f 2/19/19 10/23/23 9/20/20
f 4/22/22 11/25/25 10/23/23
f 3/24/24 12/26/26 11/25/25
f 1/21/21 9/20/20 12/26/26
f 4/22/22 14/29/29 13/27/27
f 8/28/28 15/31/31 14/29/29
f 7/30/30 16/32/32 15/31/31
f 3/24/24 13/27/27 16/32/32
f 8/28/28 18/35/35 17/33/33
f 6/34/34 19/37/37 18/35/35
f 5/36/36 20/38/38 19/37/37
f 7/30/30 17/33/33 20/38/38
f 6/34/34 22/41/40 21/39/39
f 2/40/19 23/43/41 22/41/40
f 1/42/21 24/44/42 23/43/41
f 5/36/36 21/39/39 24/44/42
f 7/30/30 26/47/44 25/45/43
f 5/36/36 27/49/45 26/47/44
f 1/48/21 28/50/46 27/49/45
f 3/46/24 25/45/43 28/50/46
f 4/51/22 30/54/48 29/52/47
f 2/53/19 31/55/49 30/54/48
f 6/34/34 32/56/50 31/55/49
f 8/28/28 29/52/47 32/56/50
f 10/23/23 34/1/1 33/3/3
f 11/25/25 35/57/51 34/1/1
f 12/26/26 36/2/2 35/57/51
f 9/20/20 33/3/3 36/2/2
f 14/29/29 38/4/4 37/6/6
f 15/31/31 39/58/52 38/4/4
f 16/32/32 40/5/5 39/58/52
f 13/27/27 37/6/6 40/5/5
f 18/35/35 42/7/7 41/9/9
f 19/37/37 43/59/53 42/7/7
f 20/38/38 44/8/8 43/59/53
f 17/33/33 41/9/9 44/8/8
f 22/41/40 46/10/10 45/12/12
f 23/43/41 47/60/54 46/10/10
f 24/44/42 48/11/11 47/60/54
f 21/39/39 45/12/12 48/11/11
f 26/47/44 50/13/13 49/15/15
f 27/49/45 51/61/55 50/13/13
f 28/50/46 52/14/14 51/61/55
f 25/45/43 49/15/15 52/14/14
f 30/54/48 54/16/16 53/18/18
f 31/55/49 55/62/56 54/16/16
f 32/56/50 56/17/17 55/62/56
f 29/52/47 53/18/18 56/17/17
