# Blender v2.92.0 OBJ File: ''
# www.blender.org
mtllib axe.mtl
o Cube_Cube.001
v -0.156610 -0.203077 0.014363
v 0.057255 0.216746 0.026420
v -0.156610 -0.203077 -0.014363
v 0.057255 0.216746 -0.026420
v -0.107390 -0.231373 0.014363
v 0.147793 0.164697 0.026420
v -0.107390 -0.231373 -0.014363
v 0.147793 0.164697 -0.026420
v 0.074389 0.198737 0.014363
v 0.074389 0.198737 -0.014363
v 0.123608 0.170441 -0.014363
v 0.123608 0.170441 0.014363
v 0.144002 0.320541 0.014543
v 0.144002 0.320541 -0.014543
v 0.193839 0.291891 -0.014543
v 0.193839 0.291891 0.014543
v 0.227811 0.060159 -0.002746
v 0.227811 0.060159 0.002746
v 0.329218 0.236552 -0.002746
v 0.329218 0.236552 0.002746
v 0.123651 0.332241 0.026420
v 0.123651 0.332241 -0.026420
v 0.214189 0.280192 -0.026420
v 0.214189 0.280192 0.026420
v 0.157718 0.344400 0.014543
v 0.157718 0.344400 -0.014543
v 0.207555 0.315749 -0.014543
v 0.207555 0.315749 0.014543
v 0.198562 0.114186 0.012936
v 0.277768 0.251963 0.012936
v 0.277768 0.251963 -0.012936
v 0.198562 0.114186 -0.012936
v -0.114361 -0.139862 0.011772
v -0.114361 -0.139862 -0.011772
v -0.074020 -0.163053 -0.011772
v -0.074020 -0.163053 0.011772
v 0.016428 0.082210 0.010402
v 0.016428 0.082210 -0.010402
v 0.052075 0.061717 -0.010402
v 0.052075 0.061717 0.010402
vt 0.339083 0.518909
vt 0.308058 0.629595
vt 0.308058 0.518909
vt 0.339083 0.740280
vt 0.308058 0.740280
vt 0.308058 0.850966
vt 0.339083 0.850966
vt 0.308058 0.961651
vt 0.228397 0.740280
vt 0.117712 0.850966
vt 0.117712 0.740280
vt 0.839780 0.823293
vt 0.839780 0.662336
vt 0.839780 0.662336
vt 0.884301 0.867815
vt 0.634301 0.617815
vt 0.884301 0.617815
vt 0.678823 0.823293
vt 0.678823 0.662336
vt 0.634301 0.867815
vt 0.374812 0.815236
vt 0.414039 0.815236
vt 0.414039 0.815236
vt 0.839780 0.823293
vt 0.678823 0.662336
vt 0.743931 0.854297
vt 0.743931 0.854297
vt 0.743931 0.854297
vt 0.743931 0.693340
vt 0.743931 0.854297
vt 0.743931 0.693340
vt 0.743931 0.693340
vt 0.743931 0.693340
vt 0.803601 0.698515
vt 0.803601 0.787115
vt 0.715001 0.698515
vt 0.715002 0.787115
vt 0.678823 0.823293
vt 0.414039 0.776010
vt 0.374812 0.815236
vt 0.374812 0.776010
vt 0.414039 0.776010
vt 0.374812 0.776010
vt 0.678823 0.823293
vt 0.678823 0.662336
vt 0.678823 0.662336
vt 0.678823 0.823293
vt 0.246514 0.850966
vt 0.228397 0.961651
vt 0.228397 0.850966
vt 0.246514 0.740280
vt 0.246514 0.629595
vt 0.228397 0.629595
vt 0.246514 0.518909
vt 0.228397 0.518909
vt 0.246514 0.961651
vt 0.339083 0.629595
vt 0.339083 0.961651
vn -0.8954 0.4454 0.0000
vn -0.8792 0.4765 0.0000
vn -0.0064 -0.0111 -0.9999
vn -0.0152 -0.0264 -0.9995
vn 0.8354 -0.5496 0.0000
vn 0.8542 -0.5200 0.0000
vn -0.0152 -0.0264 0.9995
vn -0.0064 -0.0111 0.9999
vn -0.4984 -0.8669 0.0000
vn -0.8669 0.4984 0.0000
vn -0.6550 -0.7365 -0.1692
vn -0.5839 -0.7551 0.2981
vn -0.6550 -0.7365 0.1692
vn -0.3587 -0.8846 -0.2981
vn -0.5839 -0.7551 -0.2981
vn -0.5079 -0.8564 0.0932
vn -0.5079 -0.8564 -0.0932
vn -0.3587 -0.8846 0.2981
vn 0.0000 0.0000 1.0000
vn 0.0896 -0.0515 0.9946
vn 0.0000 0.0000 -1.0000
vn 0.0859 -0.0494 -0.9951
vn 0.0896 -0.0515 -0.9946
vn 0.1658 -0.0953 0.9815
vn 0.8669 -0.4984 0.0000
vn 0.3542 0.9352 0.0000
vn 0.2869 0.9580 0.0000
vn 0.1658 -0.0953 -0.9815
vn -0.7910 -0.6118 0.0000
vn -0.8794 -0.4761 0.0000
vn 0.4984 0.8669 -0.0000
vn 0.4557 0.8901 0.0000
vn 0.0859 -0.0494 0.9951
vn 0.0100 0.0174 0.9998
vn 0.0170 0.0296 0.9994
vn 0.8859 -0.4639 0.0000
vn 0.8985 -0.4389 0.0000
vn 0.0100 0.0174 -0.9998
vn 0.0170 0.0296 -0.9994
vn -0.8467 0.5321 0.0000
vn -0.8314 0.5557 0.0000
usemtl None
s 1
f 9/1/1 38/2/2 37/3/2
f 38/2/3 11/4/4 39/5/3
f 11/4/5 40/6/6 39/5/6
f 12/7/7 37/8/8 40/6/8
f 7/9/9 1/10/9 3/11/9
f 2/12/10 22/13/10 4/14/10
f 4/14/11 9/15/12 2/12/13
f 4/14/11 11/16/14 10/17/15
f 6/18/16 11/16/14 8/19/17
f 2/12/13 12/20/18 6/18/16
f 16/21/19 25/22/19 13/23/19
f 6/18/20 21/24/19 2/12/19
f 4/14/21 23/25/22 8/19/23
f 29/26/24 20/27/24 30/28/24
f 17/29/25 20/27/25 18/30/25
f 30/28/26 19/31/27 31/32/26
f 32/33/28 19/31/28 17/29/28
f 32/33/29 18/30/30 29/26/29
f 14/34/31 21/24/31 13/35/31
f 15/36/31 22/13/31 14/34/31
f 16/37/31 23/25/32 15/36/31
f 16/37/31 21/24/31 24/38/32
f 26/39/31 28/40/31 27/41/31
f 14/42/21 27/41/21 15/43/21
f 15/43/25 28/40/25 16/21/25
f 13/23/10 26/39/10 14/42/10
f 8/19/17 29/44/29 6/18/16
f 8/19/23 31/45/28 32/46/28
f 24/38/32 31/45/26 23/25/32
f 6/18/20 30/47/24 24/38/33
f 36/48/34 1/49/35 5/50/35
f 35/51/36 5/50/37 7/9/37
f 34/52/38 7/9/39 3/53/39
f 33/54/40 3/53/41 1/55/41
f 40/6/8 33/56/34 36/48/34
f 39/5/6 36/48/36 35/51/36
f 38/2/3 35/51/38 34/52/38
f 37/3/2 34/52/40 33/54/40
f 9/1/1 10/57/1 38/2/2
f 38/2/3 10/57/4 11/4/4
f 11/4/5 12/7/5 40/6/6
f 12/7/7 9/58/7 37/8/8
f 7/9/9 5/50/9 1/10/9
f 2/12/10 21/24/10 22/13/10
f 4/14/11 10/17/15 9/15/12
f 4/14/11 8/19/17 11/16/14
f 6/18/16 12/20/18 11/16/14
f 2/12/13 9/15/12 12/20/18
f 16/21/19 28/40/19 25/22/19
f 6/18/20 24/38/33 21/24/19
f 4/14/21 22/13/21 23/25/22
f 29/26/24 18/30/24 20/27/24
f 17/29/25 19/31/25 20/27/25
f 30/28/26 20/27/27 19/31/27
f 32/33/28 31/32/28 19/31/28
f 32/33/29 17/29/30 18/30/30
f 14/34/31 22/13/31 21/24/31
f 15/36/31 23/25/32 22/13/31
f 16/37/31 24/38/32 23/25/32
f 16/37/31 13/35/31 21/24/31
f 26/39/31 25/22/31 28/40/31
f 14/42/21 26/39/21 27/41/21
f 15/43/25 27/41/25 28/40/25
f 13/23/10 25/22/10 26/39/10
f 8/19/17 32/46/29 29/44/29
f 8/19/23 23/25/22 31/45/28
f 24/38/32 30/47/26 31/45/26
f 6/18/20 29/44/24 30/47/24
f 36/48/34 33/56/34 1/49/35
f 35/51/36 36/48/36 5/50/37
f 34/52/38 35/51/38 7/9/39
f 33/54/40 34/52/40 3/53/41
f 40/6/8 37/8/8 33/56/34
f 39/5/6 40/6/6 36/48/36
f 38/2/3 39/5/3 35/51/38
f 37/3/2 38/2/2 34/52/40
