# Blender v2.92.0 OBJ File: ''
# www.blender.org
mtllib sphere.mtl
o Sphere
v 0.000000 0.707107 -0.707107
v 0.000000 0.382683 -0.923880
v 0.000000 -0.382684 -0.923880
v 0.000000 -0.923880 -0.382683
v 0.146447 0.923880 -0.353553
v 0.270598 0.707107 -0.653281
v 0.353553 0.382683 -0.853553
v 0.382683 -0.000000 -0.923880
v 0.353553 -0.382684 -0.853553
v 0.270598 -0.707107 -0.653281
v 0.146447 -0.923880 -0.353553
v 0.270598 0.923880 -0.270598
v 0.500000 0.707107 -0.500000
v 0.653281 0.382683 -0.653281
v 0.707107 -0.000000 -0.707107
v 0.653281 -0.382684 -0.653281
v 0.500000 -0.707107 -0.500000
v 0.270598 -0.923880 -0.270598
v 0.353553 0.923880 -0.146447
v 0.653281 0.707107 -0.270598
v 0.853553 0.382683 -0.353553
v 0.923879 -0.000000 -0.382683
v 0.853553 -0.382684 -0.353553
v 0.653281 -0.707107 -0.270598
v 0.353553 -0.923880 -0.146447
v 0.382683 0.923880 -0.000000
v 0.707107 0.707107 -0.000000
v 0.923879 0.382683 -0.000000
v 1.000000 -0.000000 -0.000000
v 0.923879 -0.382684 -0.000000
v 0.707107 -0.707107 -0.000000
v 0.382683 -0.923880 -0.000000
v 0.353553 0.923880 0.146446
v 0.653281 0.707107 0.270598
v 0.853553 0.382683 0.353553
v 0.923879 -0.000000 0.382683
v 0.853553 -0.382684 0.353553
v 0.653281 -0.707107 0.270598
v 0.353553 -0.923880 0.146446
v 0.270598 0.923880 0.270598
v 0.500000 0.707107 0.500000
v 0.653281 0.382683 0.653281
v 0.707106 -0.000000 0.707107
v 0.653281 -0.382684 0.653281
v 0.500000 -0.707107 0.500000
v 0.270598 -0.923880 0.270598
v 0.146446 0.923880 0.353553
v 0.270598 0.707107 0.653281
v 0.353553 0.382683 0.853553
v 0.382683 -0.000000 0.923879
v 0.353553 -0.382684 0.853553
v 0.270598 -0.707107 0.653281
v 0.146446 -0.923880 0.353553
v -0.000000 0.923880 0.382683
v -0.000000 0.707107 0.707106
v -0.000000 0.382683 0.923879
v -0.000000 -0.000000 1.000000
v -0.000000 -0.382684 0.923879
v -0.000000 -0.707107 0.707106
v -0.000000 -0.923880 0.382683
v -0.146447 0.923880 0.353553
v -0.270598 0.707107 0.653281
v -0.353554 0.382683 0.853553
v -0.382684 -0.000000 0.923879
v -0.353554 -0.382684 0.853553
v -0.270598 -0.707107 0.653281
v -0.146447 -0.923880 0.353553
v -0.270598 0.923880 0.270598
v -0.500000 0.707107 0.499999
v -0.653282 0.382683 0.653281
v -0.707107 -0.000000 0.707106
v -0.653282 -0.382684 0.653281
v -0.500000 -0.707107 0.499999
v -0.270598 -0.923880 0.270598
v -0.353553 0.923880 0.146446
v -0.653281 0.707107 0.270597
v -0.853553 0.382683 0.353553
v -0.923879 -0.000000 0.382683
v -0.853553 -0.382684 0.353553
v -0.653281 -0.707107 0.270597
v -0.353553 -0.923880 0.146446
v -0.382683 0.923880 -0.000000
v -0.707106 0.707107 -0.000000
v -0.923879 0.382683 -0.000001
v -1.000000 -0.000000 -0.000001
v -0.923879 -0.382684 -0.000001
v -0.707106 -0.707107 -0.000000
v -0.382683 -0.923880 -0.000000
v -0.353553 0.923880 -0.146447
v -0.653281 0.707107 -0.270598
v -0.853553 0.382683 -0.353554
v -0.923879 -0.000000 -0.382684
v -0.853553 -0.382684 -0.353554
v -0.653281 -0.707107 -0.270598
v -0.353553 -0.923880 -0.146447
v -0.270598 0.923880 -0.270598
v -0.499999 0.707107 -0.500000
v -0.653281 0.382683 -0.653282
v -0.707106 -0.000000 -0.707107
v -0.653281 -0.382684 -0.653282
v -0.499999 -0.707107 -0.500000
v -0.270598 -0.923880 -0.270598
v -0.146446 0.923880 -0.353553
v -0.270598 0.707107 -0.653281
v -0.353553 0.382683 -0.853553
v -0.382683 -0.000000 -0.923880
v -0.353553 -0.382684 -0.853553
v -0.270598 -0.707107 -0.653281
v -0.146446 -0.923880 -0.353553
v -0.000000 1.000000 -0.000000
v 0.000000 0.923880 -0.382683
v 0.000001 -0.000000 -1.000000
v 0.000000 -0.707107 -0.707106
v 0.000000 -1.000000 -0.000000
vt 0.718750 0.000000
vt 0.750000 0.125000
vt 0.687500 0.125000
vt 0.750000 0.250000
vt 0.687500 0.375000
vt 0.687500 0.250000
vt 0.750000 0.500000
vt 0.687500 0.625000
vt 0.687500 0.500000
vt 0.750000 0.875000
vt 0.687500 0.750000
vt 0.750000 0.750000
vt 0.750000 0.375000
vt 0.750000 0.625000
vt 0.718750 1.000000
vt 0.687500 0.875000
vt 0.625000 0.250000
vt 0.625000 0.125000
vt 0.625000 0.375000
vt 0.625000 0.625000
vt 0.656250 1.000000
vt 0.625000 0.875000
vt 0.656250 0.000000
vt 0.625000 0.500000
vt 0.625000 0.750000
vt 0.562500 0.375000
vt 0.562500 0.625000
vt 0.593750 1.000000
vt 0.562500 0.875000
vt 0.593750 0.000000
vt 0.562500 0.125000
vt 0.562500 0.250000
vt 0.562500 0.500000
vt 0.562500 0.750000
vt 0.531250 0.000000
vt 0.500000 0.125000
vt 0.500000 0.250000
vt 0.500000 0.500000
vt 0.500000 0.750000
vt 0.500000 0.375000
vt 0.500000 0.625000
vt 0.531250 1.000000
vt 0.500000 0.875000
vt 0.437500 0.500000
vt 0.437500 0.750000
vt 0.437500 0.250000
vt 0.437500 0.125000
vt 0.437500 0.375000
vt 0.437500 0.625000
vt 0.468750 1.000000
vt 0.437500 0.875000
vt 0.468750 0.000000
vt 0.375000 0.250000
vt 0.375000 0.125000
vt 0.375000 0.375000
vt 0.375000 0.625000
vt 0.406250 1.000000
vt 0.375000 0.875000
vt 0.406250 0.000000
vt 0.375000 0.500000
vt 0.375000 0.750000
vt 0.312500 0.625000
vt 0.343750 1.000000
vt 0.312500 0.875000
vt 0.343750 0.000000
vt 0.312500 0.125000
vt 0.312500 0.375000
vt 0.312500 0.250000
vt 0.312500 0.500000
vt 0.312500 0.750000
vt 0.281250 0.000000
vt 0.250000 0.125000
vt 0.250000 0.375000
vt 0.250000 0.250000
vt 0.250000 0.500000
vt 0.250000 0.875000
vt 0.250000 0.750000
vt 0.250000 0.625000
vt 0.281250 1.000000
vt 0.187500 0.875000
vt 0.187500 0.750000
vt 0.187500 0.125000
vt 0.187500 0.375000
vt 0.187500 0.625000
vt 0.218750 1.000000
vt 0.218750 0.000000
vt 0.187500 0.250000
vt 0.187500 0.500000
vt 0.125000 0.250000
vt 0.125000 0.125000
vt 0.125000 0.500000
vt 0.125000 0.375000
vt 0.125000 0.625000
vt 0.156250 1.000000
vt 0.125000 0.875000
vt 0.156250 0.000000
vt 0.125000 0.750000
vt 0.093750 1.000000
vt 0.062500 0.875000
vt 0.093750 0.000000
vt 0.062500 0.125000
vt 0.062500 0.375000
vt 0.062500 0.250000
vt 0.062500 0.625000
vt 0.062500 0.500000
vt 0.062500 0.750000
vt 0.000000 0.375000
vt 0.000000 0.250000
vt 0.000000 0.625000
vt 0.000000 0.500000
vt 0.000000 0.875000
vt 0.000000 0.750000
vt 0.000000 0.125000
vt 0.031250 1.000000
vt 0.031250 0.000000
vt 1.000000 0.125000
vt 0.937500 0.250000
vt 0.937500 0.125000
vt 1.000000 0.500000
vt 0.937500 0.375000
vt 1.000000 0.375000
vt 1.000000 0.750000
vt 0.937500 0.625000
vt 1.000000 0.625000
vt 1.000000 0.875000
vt 0.968750 1.000000
vt 0.937500 0.875000
vt 0.968750 0.000000
vt 1.000000 0.250000
vt 0.937500 0.500000
vt 0.937500 0.750000
vt 0.875000 0.375000
vt 0.875000 0.625000
vt 0.906250 1.000000
vt 0.875000 0.875000
vt 0.906250 0.000000
vt 0.875000 0.125000
vt 0.875000 0.250000
vt 0.875000 0.500000
vt 0.875000 0.750000
vt 0.843750 0.000000
vt 0.812500 0.125000
vt 0.812500 0.375000
vt 0.812500 0.250000
vt 0.812500 0.625000
vt 0.812500 0.500000
vt 0.812500 0.875000
vt 0.812500 0.750000
vt 0.843750 1.000000
vt 0.781250 1.000000
vt 0.781250 0.000000
vn 0.0000 -1.0000 0.0000
vn 0.0000 -0.9152 -0.4031
vn 0.1542 -0.9152 -0.3724
vn 0.0000 -0.6952 -0.7188
vn 0.3548 -0.3743 -0.8567
vn 0.2751 -0.6952 -0.6641
vn 0.0000 0.0000 -1.0000
vn 0.3548 0.3743 -0.8567
vn 0.3827 0.0000 -0.9239
vn 0.0000 0.9152 -0.4031
vn 0.2751 0.6952 -0.6641
vn 0.0000 0.6952 -0.7188
vn 0.0000 -0.3743 -0.9273
vn 0.0000 0.3743 -0.9273
vn 0.0000 1.0000 0.0000
vn 0.1542 0.9152 -0.3724
vn 0.5083 -0.6952 -0.5083
vn 0.2850 -0.9152 -0.2850
vn 0.6557 -0.3743 -0.6557
vn 0.6557 0.3743 -0.6557
vn 0.2850 0.9152 -0.2850
vn 0.7071 0.0000 -0.7071
vn 0.5083 0.6952 -0.5083
vn 0.8567 -0.3743 -0.3548
vn 0.8567 0.3743 -0.3548
vn 0.3724 0.9152 -0.1542
vn 0.3724 -0.9152 -0.1542
vn 0.6641 -0.6952 -0.2751
vn 0.9239 0.0000 -0.3827
vn 0.6641 0.6952 -0.2751
vn 0.4031 -0.9152 0.0000
vn 0.7188 -0.6952 0.0000
vn 1.0000 0.0000 0.0000
vn 0.7188 0.6952 0.0000
vn 0.9273 -0.3743 0.0000
vn 0.9273 0.3743 0.0000
vn 0.4031 0.9152 0.0000
vn 0.9239 0.0000 0.3827
vn 0.6641 0.6952 0.2751
vn 0.6641 -0.6952 0.2751
vn 0.3724 -0.9152 0.1542
vn 0.8567 -0.3743 0.3548
vn 0.8567 0.3743 0.3548
vn 0.3724 0.9152 0.1542
vn 0.5083 -0.6952 0.5083
vn 0.2850 -0.9152 0.2850
vn 0.6557 -0.3743 0.6557
vn 0.6557 0.3743 0.6557
vn 0.2850 0.9152 0.2850
vn 0.7071 0.0000 0.7071
vn 0.5083 0.6952 0.5083
vn 0.3548 0.3743 0.8567
vn 0.1542 0.9152 0.3724
vn 0.1542 -0.9152 0.3724
vn 0.3548 -0.3743 0.8567
vn 0.2751 -0.6952 0.6641
vn 0.3827 0.0000 0.9239
vn 0.2751 0.6952 0.6641
vn 0.0000 -0.9152 0.4031
vn 0.0000 -0.3743 0.9273
vn 0.0000 -0.6952 0.7188
vn 0.0000 0.0000 1.0000
vn 0.0000 0.9152 0.4031
vn 0.0000 0.6952 0.7188
vn 0.0000 0.3743 0.9273
vn -0.1542 0.9152 0.3724
vn -0.2751 0.6952 0.6641
vn -0.1542 -0.9152 0.3724
vn -0.3548 -0.3743 0.8567
vn -0.3548 0.3743 0.8567
vn -0.2751 -0.6952 0.6641
vn -0.3827 0.0000 0.9239
vn -0.5083 -0.6952 0.5083
vn -0.2850 -0.9152 0.2850
vn -0.7071 0.0000 0.7071
vn -0.6557 -0.3743 0.6557
vn -0.6557 0.3743 0.6557
vn -0.2850 0.9152 0.2850
vn -0.5083 0.6952 0.5083
vn -0.3724 0.9152 0.1542
vn -0.3724 -0.9152 0.1542
vn -0.8567 -0.3743 0.3548
vn -0.6641 -0.6952 0.2751
vn -0.8567 0.3743 0.3548
vn -0.9239 0.0000 0.3827
vn -0.6641 0.6952 0.2751
vn -0.9273 -0.3743 0.0000
vn -0.7188 -0.6952 0.0000
vn -0.9273 0.3743 0.0000
vn -1.0000 0.0000 0.0000
vn -0.4031 0.9152 0.0000
vn -0.7188 0.6952 0.0000
vn -0.4031 -0.9152 0.0000
vn -0.6641 -0.6952 -0.2751
vn -0.3724 -0.9152 -0.1542
vn -0.8567 -0.3743 -0.3548
vn -0.8567 0.3743 -0.3548
vn -0.3724 0.9152 -0.1542
vn -0.9239 0.0000 -0.3827
vn -0.6641 0.6952 -0.2751
vn -0.6557 -0.3743 -0.6557
vn -0.6557 0.3743 -0.6557
vn -0.2850 0.9152 -0.2850
vn -0.2850 -0.9152 -0.2850
vn -0.5083 -0.6952 -0.5083
vn -0.7071 0.0000 -0.7071
vn -0.5083 0.6952 -0.5083
vn -0.1542 -0.9152 -0.3724
vn -0.3548 -0.3743 -0.8567
vn -0.2751 -0.6952 -0.6641
vn -0.3548 0.3743 -0.8567
vn -0.3827 0.0000 -0.9239
vn -0.1542 0.9152 -0.3724
vn -0.2751 0.6952 -0.6641
usemtl None
s 1
f 114/1/1 4/2/2 11/3/3
f 113/4/4 9/5/5 10/6/6
f 112/7/7 7/8/8 8/9/9
f 111/10/10 6/11/11 1/12/12
f 113/4/4 11/3/3 4/2/2
f 112/7/7 9/5/5 3/13/13
f 1/12/12 7/8/8 2/14/14
f 111/10/10 110/15/15 5/16/16
f 11/3/3 17/17/17 18/18/18
f 8/9/9 16/19/19 9/5/5
f 6/11/11 14/20/20 7/8/8
f 5/16/16 110/21/15 12/22/21
f 114/23/1 11/3/3 18/18/18
f 9/5/5 17/17/17 10/6/6
f 7/8/8 15/24/22 8/9/9
f 5/16/16 13/25/23 6/11/11
f 15/24/22 23/26/24 16/19/19
f 13/25/23 21/27/25 14/20/20
f 12/22/21 110/28/15 19/29/26
f 114/30/1 18/18/18 25/31/27
f 16/19/19 24/32/28 17/17/17
f 14/20/20 22/33/29 15/24/22
f 12/22/21 20/34/30 13/25/23
f 18/18/18 24/32/28 25/31/27
f 114/35/1 25/31/27 32/36/31
f 23/26/24 31/37/32 24/32/28
f 21/27/25 29/38/33 22/33/29
f 19/29/26 27/39/34 20/34/30
f 25/31/27 31/37/32 32/36/31
f 23/26/24 29/38/33 30/40/35
f 21/27/25 27/39/34 28/41/36
f 19/29/26 110/42/15 26/43/37
f 28/41/36 36/44/38 29/38/33
f 26/43/37 34/45/39 27/39/34
f 32/36/31 38/46/40 39/47/41
f 30/40/35 36/44/38 37/48/42
f 27/39/34 35/49/43 28/41/36
f 26/43/37 110/50/15 33/51/44
f 114/52/1 32/36/31 39/47/41
f 30/40/35 38/46/40 31/37/32
f 39/47/41 45/53/45 46/54/46
f 36/44/38 44/55/47 37/48/42
f 34/45/39 42/56/48 35/49/43
f 33/51/44 110/57/15 40/58/49
f 114/59/1 39/47/41 46/54/46
f 37/48/42 45/53/45 38/46/40
f 35/49/43 43/60/50 36/44/38
f 34/45/39 40/58/49 41/61/51
f 41/61/51 49/62/52 42/56/48
f 40/58/49 110/63/15 47/64/53
f 114/65/1 46/54/46 53/66/54
f 45/53/45 51/67/55 52/68/56
f 42/56/48 50/69/57 43/60/50
f 41/61/51 47/64/53 48/70/58
f 45/53/45 53/66/54 46/54/46
f 43/60/50 51/67/55 44/55/47
f 114/71/1 53/66/54 60/72/59
f 52/68/56 58/73/60 59/74/61
f 49/62/52 57/75/62 50/69/57
f 48/70/58 54/76/63 55/77/64
f 52/68/56 60/72/59 53/66/54
f 50/69/57 58/73/60 51/67/55
f 48/70/58 56/78/65 49/62/52
f 47/64/53 110/79/15 54/76/63
f 55/77/64 61/80/66 62/81/67
f 59/74/61 67/82/68 60/72/59
f 57/75/62 65/83/69 58/73/60
f 55/77/64 63/84/70 56/78/65
f 54/76/63 110/85/15 61/80/66
f 114/86/1 60/72/59 67/82/68
f 59/74/61 65/83/69 66/87/71
f 56/78/65 64/88/72 57/75/62
f 67/82/68 73/89/73 74/90/74
f 65/83/69 71/91/75 72/92/76
f 62/81/67 70/93/77 63/84/70
f 61/80/66 110/94/15 68/95/78
f 114/96/1 67/82/68 74/90/74
f 66/87/71 72/92/76 73/89/73
f 63/84/70 71/91/75 64/88/72
f 62/81/67 68/95/78 69/97/79
f 68/95/78 110/98/15 75/99/80
f 114/100/1 74/90/74 81/101/81
f 73/89/73 79/102/82 80/103/83
f 71/91/75 77/104/84 78/105/85
f 69/97/79 75/99/80 76/106/86
f 73/89/73 81/101/81 74/90/74
f 71/91/75 79/102/82 72/92/76
f 69/97/79 77/104/84 70/93/77
f 80/103/83 86/107/87 87/108/88
f 78/105/85 84/109/89 85/110/90
f 76/106/86 82/111/91 83/112/92
f 80/103/83 88/113/93 81/101/81
f 78/105/85 86/107/87 79/102/82
f 76/106/86 84/109/89 77/104/84
f 75/99/80 110/114/15 82/111/91
f 114/115/1 81/101/81 88/113/93
f 88/116/93 94/117/94 95/118/95
f 85/119/90 93/120/96 86/121/87
f 83/122/92 91/123/97 84/124/89
f 82/125/91 110/126/15 89/127/98
f 114/128/1 88/116/93 95/118/95
f 87/129/88 93/120/96 94/117/94
f 85/119/90 91/123/97 92/130/99
f 83/122/92 89/127/98 90/131/100
f 92/130/99 100/132/101 93/120/96
f 90/131/100 98/133/102 91/123/97
f 89/127/98 110/134/15 96/135/103
f 114/136/1 95/118/95 102/137/104
f 94/117/94 100/132/101 101/138/105
f 92/130/99 98/133/102 99/139/106
f 90/131/100 96/135/103 97/140/107
f 95/118/95 101/138/105 102/137/104
f 114/141/1 102/137/104 109/142/108
f 101/138/105 107/143/109 108/144/110
f 99/139/106 105/145/111 106/146/112
f 97/140/107 103/147/113 104/148/114
f 102/137/104 108/144/110 109/142/108
f 99/139/106 107/143/109 100/132/101
f 97/140/107 105/145/111 98/133/102
f 96/135/103 110/149/15 103/147/113
f 106/146/112 2/14/14 112/7/7
f 104/148/114 111/10/10 1/12/12
f 108/144/110 4/2/2 109/142/108
f 106/146/112 3/13/13 107/143/109
f 105/145/111 1/12/12 2/14/14
f 103/147/113 110/150/15 111/10/10
f 114/151/1 109/142/108 4/2/2
f 108/144/110 3/13/13 113/4/4
f 113/4/4 3/13/13 9/5/5
f 112/7/7 2/14/14 7/8/8
f 111/10/10 5/16/16 6/11/11
f 113/4/4 10/6/6 11/3/3
f 112/7/7 8/9/9 9/5/5
f 1/12/12 6/11/11 7/8/8
f 11/3/3 10/6/6 17/17/17
f 8/9/9 15/24/22 16/19/19
f 6/11/11 13/25/23 14/20/20
f 9/5/5 16/19/19 17/17/17
f 7/8/8 14/20/20 15/24/22
f 5/16/16 12/22/21 13/25/23
f 15/24/22 22/33/29 23/26/24
f 13/25/23 20/34/30 21/27/25
f 16/19/19 23/26/24 24/32/28
f 14/20/20 21/27/25 22/33/29
f 12/22/21 19/29/26 20/34/30
f 18/18/18 17/17/17 24/32/28
f 23/26/24 30/40/35 31/37/32
f 21/27/25 28/41/36 29/38/33
f 19/29/26 26/43/37 27/39/34
f 25/31/27 24/32/28 31/37/32
f 23/26/24 22/33/29 29/38/33
f 21/27/25 20/34/30 27/39/34
f 28/41/36 35/49/43 36/44/38
f 26/43/37 33/51/44 34/45/39
f 32/36/31 31/37/32 38/46/40
f 30/40/35 29/38/33 36/44/38
f 27/39/34 34/45/39 35/49/43
f 30/40/35 37/48/42 38/46/40
f 39/47/41 38/46/40 45/53/45
f 36/44/38 43/60/50 44/55/47
f 34/45/39 41/61/51 42/56/48
f 37/48/42 44/55/47 45/53/45
f 35/49/43 42/56/48 43/60/50
f 34/45/39 33/51/44 40/58/49
f 41/61/51 48/70/58 49/62/52
f 45/53/45 44/55/47 51/67/55
f 42/56/48 49/62/52 50/69/57
f 41/61/51 40/58/49 47/64/53
f 45/53/45 52/68/56 53/66/54
f 43/60/50 50/69/57 51/67/55
f 52/68/56 51/67/55 58/73/60
f 49/62/52 56/78/65 57/75/62
f 48/70/58 47/64/53 54/76/63
f 52/68/56 59/74/61 60/72/59
f 50/69/57 57/75/62 58/73/60
f 48/70/58 55/77/64 56/78/65
f 55/77/64 54/76/63 61/80/66
f 59/74/61 66/87/71 67/82/68
f 57/75/62 64/88/72 65/83/69
f 55/77/64 62/81/67 63/84/70
f 59/74/61 58/73/60 65/83/69
f 56/78/65 63/84/70 64/88/72
f 67/82/68 66/87/71 73/89/73
f 65/83/69 64/88/72 71/91/75
f 62/81/67 69/97/79 70/93/77
f 66/87/71 65/83/69 72/92/76
f 63/84/70 70/93/77 71/91/75
f 62/81/67 61/80/66 68/95/78
f 73/89/73 72/92/76 79/102/82
f 71/91/75 70/93/77 77/104/84
f 69/97/79 68/95/78 75/99/80
f 73/89/73 80/103/83 81/101/81
f 71/91/75 78/105/85 79/102/82
f 69/97/79 76/106/86 77/104/84
f 80/103/83 79/102/82 86/107/87
f 78/105/85 77/104/84 84/109/89
f 76/106/86 75/99/80 82/111/91
f 80/103/83 87/108/88 88/113/93
f 78/105/85 85/110/90 86/107/87
f 76/106/86 83/112/92 84/109/89
f 88/116/93 87/129/88 94/117/94
f 85/119/90 92/130/99 93/120/96
f 83/122/92 90/131/100 91/123/97
f 87/129/88 86/121/87 93/120/96
f 85/119/90 84/124/89 91/123/97
f 83/122/92 82/125/91 89/127/98
f 92/130/99 99/139/106 100/132/101
f 90/131/100 97/140/107 98/133/102
f 94/117/94 93/120/96 100/132/101
f 92/130/99 91/123/97 98/133/102
f 90/131/100 89/127/98 96/135/103
f 95/118/95 94/117/94 101/138/105
f 101/138/105 100/132/101 107/143/109
f 99/139/106 98/133/102 105/145/111
f 97/140/107 96/135/103 103/147/113
f 102/137/104 101/138/105 108/144/110
f 99/139/106 106/146/112 107/143/109
f 97/140/107 104/148/114 105/145/111
f 106/146/112 105/145/111 2/14/14
f 104/148/114 103/147/113 111/10/10
f 108/144/110 113/4/4 4/2/2
f 106/146/112 112/7/7 3/13/13
f 105/145/111 104/148/114 1/12/12
f 108/144/110 107/143/109 3/13/13
